<?xml version="1.0" encoding="UTF-8"?>
<svg width="512px" height="512px" viewBox="0 0 512 512" version="1.1" xmlns="http://www.w3.org/2000/svg" xmlns:xlink="http://www.w3.org/1999/xlink">
    <!-- Generator: Sketch 42 (36781) - http://www.bohemiancoding.com/sketch -->
    <title>icon-512x512</title>
    <desc>Created with Sketch.</desc>
    <defs>
        <linearGradient x1="-4.81155244%" y1="105.013469%" x2="108.480303%" y2="-8.80871415%" id="linearGradient-1">
            <stop stop-color="#5764C6" offset="0%"></stop>
            <stop stop-color="#374292" offset="100%"></stop>
        </linearGradient>
    </defs>
    <g id="Page-1" stroke="none" stroke-width="1" fill="none" fill-rule="evenodd">
        <g id="icon-512x512" fill-rule="nonzero">
            <path d="M67.7194389,0 L444.280561,0 C481.708738,1.31031235e-14 512,30.1267819 512,67.584 L512,444.416 C512,481.717925 481.864078,512 444.280561,512 L67.7194389,512 C30.2912621,512 0,481.873218 0,444.416 L0,67.584 C0,30.1267819 30.1359223,0 67.7194389,0 L67.7194389,0 Z" id="Shape" fill="url(#linearGradient-1)"></path>
            <path d="M262.206061,128.837818 C182.458182,128.837818 117.76,193.536 117.76,273.43903 C117.76,353.342061 182.458182,417.885091 262.206061,417.885091 C341.953939,417.885091 406.652121,353.186909 406.652121,273.283879 C406.652121,193.380848 342.109091,128.837818 262.206061,128.837818 L262.206061,128.837818 Z M262.206061,375.218424 C206.041212,375.218424 160.426667,329.603879 160.426667,273.43903 C160.426667,217.274182 206.041212,171.659636 262.206061,171.659636 C318.370909,171.659636 363.985455,217.274182 363.985455,273.43903 C363.985455,329.603879 318.526061,375.218424 262.206061,375.218424 Z M262.206061,192.449939 L262.206061,268.31903 C262.206061,270.491152 264.533333,272.042667 266.550303,270.956606 L333.886061,236.047515 C335.437576,235.271758 335.90303,233.409939 335.127273,231.858424 C321.163636,207.344485 295.253333,190.588121 265.309091,189.502061 C263.757576,189.502061 262.206061,190.743273 262.206061,192.449939 L262.206061,192.449939 Z M167.873939,136.750545 L159.030303,127.906909 C150.341818,119.218424 136.378182,119.218424 127.689697,127.906909 L117.139394,138.457212 C108.450909,147.145697 108.450909,161.109333 117.139394,169.797818 L125.827879,178.486303 C127.224242,179.882667 129.241212,179.572364 130.482424,178.176 C135.602424,171.194182 141.187879,164.522667 147.393939,158.316606 C153.755152,151.955394 160.271515,146.369939 167.408485,141.249939 C168.96,140.31903 169.115152,138.146909 167.873939,136.750545 L167.873939,136.750545 Z M309.527273,113.788121 L309.527273,96.256 C309.527273,83.9990303 299.597576,74.0693333 287.340606,74.0693333 L235.675152,74.0693333 C223.418182,74.0693333 213.488485,83.9990303 213.488485,96.256 L213.488485,114.253576 C213.488485,116.270545 215.350303,117.666909 217.367273,117.201455 C231.796364,113.012364 247.001212,110.840242 262.361212,110.840242 C277.100606,110.840242 291.684848,112.857212 305.803636,116.736 C307.665455,117.201455 309.527273,115.805091 309.527273,113.788121 L309.527273,113.788121 Z" id="Shape" fill="#FFFFFF"></path>
        </g>
    </g>
</svg>